<?xml version="1.0" encoding="utf-8"?>
<!-- Generator: Adobe Illustrator 19.0.0, SVG Export Plug-In . SVG Version: 6.00 Build 0)  -->
<svg version="1.1" id="Layer_1" xmlns="http://www.w3.org/2000/svg" xmlns:xlink="http://www.w3.org/1999/xlink" x="0px" y="0px"
	 viewBox="200 -200 1000 1000" style="enable-background:new 200 -200 1000 1000;" xml:space="preserve">
<style type="text/css">
	.st0{fill:#FFEB3B;}
	.st1{fill:#222222;}
	.st2{fill:#414042;}
	.st3{fill:none;stroke:#222222;stroke-width:5;stroke-miterlimit:10;}
	.st4{fill:none;stroke:#222222;stroke-width:20;stroke-miterlimit:10;}
</style>
<rect x="200" y="-200" class="st0" width="1000" height="1000"/>
<g id="XMLID_15_">
	<path id="XMLID_29_" class="st1" d="M406.2,186.4c4-3.3,8.9-3.8,14.4-2.2c-7.3-70.1-21.6-155.9-21.3-234.8
		c-1.7-33.5,0.2-66.4-20.6-99.6c-45.3-53.9-65.2-57.2-57.7,11.2c5.2,39.1,2.9,31.1,5.3,42.6c15.3,70.9,35.4,135.9,54.2,204.4
		C388,135.7,394.2,163,406.2,186.4z"/>
	<path id="XMLID_28_" class="st1" d="M383.7,197.5c2.4-5.3,5.3-8.7,9.4-8.2c-14-52.6-31.2-106.3-46.2-163.8
		c-14.3-54.8-25.7-113-41-164.3c-0.8-2.7-10.5-37.2-16.6-38.9c-18.5-5.2-44.6,46.9-56.3,72.8c-25.5,60.6-21.3,115.5-4,164.8
		c12.5,35.8,31.3,70.9,55.7,106c7.9,11.3,18,28.6,25.8,32.1c9,4,26.2,0,36.6-0.3C359.1,197.4,369.9,196.2,383.7,197.5z"/>
	<path id="XMLID_27_" class="st1" d="M519.8,184.5c6.2,9.6,12.7,24.9,29.9,27.6c3.3-1.7-2.2-7.4-0.3-15c8.4-32,42.7-24.6,31.8,5.5
		c31.4-37.9,31-102.2-19.4-118c-8-2.5-16.9-5.8-13,19.4c2.9,11.9,5.1,14.7,4.1,32C548.4,167,532.5,162.7,519.8,184.5z"/>
	<path id="XMLID_26_" class="st1" d="M482.9,197.7c-26.3-27.7,34.1-69,30-22c32.9-43.7,4-97.1-46-124c-11.7,1.4-29.1,11.3-37.5,32.9
		C413.8,124.9,431.4,187.7,482.9,197.7z"/>
	<path id="XMLID_25_" class="st1" d="M492.2,163.3c-4.9-5.2-4.6,2.3-3.8,4.8c2.2,4.6,4.6,7.2,6.8,8.4
		C503.4,174.5,500.7,169.7,492.2,163.3z"/>
	<path id="XMLID_24_" class="st1" d="M418.4,194.6c-7.9-1.2-15.2-0.2-22.2,1.3c0.7,3,5.6,4.7,5.6,7.9c-14.5,7-32.7,2-51,2.4
		c-16.9,0.4-35.5,5.3-51,2.4c-20.2-3.6-60.1-18-67.8-0.6c15.8-4,24.7-3.7,35.9-1.5c-4.6,12.3-32.1,2.6-38.6,20.9
		c9.6-5.4,24.5-9.4,36.1-4c-13.1,8.5-44.7,38.8-19.2,20.5c7.6-2.4,17.5-11.5,27.3-4.6c7.9,5.2-27,43.9-2.3,20.1
		c15.3-16,9-23.9,20.9-33.3c22.5-17.7,75.7-4.9,105.7,0.4c-4.4,5.7-11.2,3.2-16.5,6.1c-4.3,25.2,39.3,41.1,55.4,26.4
		C417.9,241.5,407.6,221.2,418.4,194.6z"/>
	<path id="XMLID_23_" class="st1" d="M442.1,266.5c-1,0.4-1.3,1.6-0.6,2.4c12.7,16.4,32,43.6,12.7,65.6c-5.7,6.5-13.2,6-20.4,18.4
		c-0.5,0.8-9.7,18.9-8.1,17.4c9-8.7,24.4-23.1,30.6-18c5.7,10.4,1.9,8.1-0.5,20.7c-2.2,11.3-20.4,17.4-16.2,17.2
		c17.9-0.9,28-22.9,33.7-32.4c0.5-0.7,2.2-1.5,2.2-0.5c0.2,6.3-0.6,17.3-2.5,27c-0.1,0.6-12.3,15.3-11.7,15
		c23-11.9,22.8-38,24.6-46.2c0.1-0.2,0.1-0.5,0-0.7c-1.7-7.5-10.3,3.3,3,23.6c0.5,0.6,3.4,14,3.8,13.3c6.2-13.2-5.5-42.7-16.4-50.7
		c-0.3-0.2-0.6-0.6-0.7-1.1c-2.5-18.8-4.6-37.7-8.5-56.1c-0.1-0.5-0.5-1-1-1.2C456.9,276.9,448.5,263.6,442.1,266.5z"/>
	<path id="XMLID_22_" class="st1" d="M372.3,231.2c-9.2-2-17.6-1.1-26.6-2.7c1.1,4.4,10.4,6.2,14.7,9.6
		C364.3,235.4,369,235.5,372.3,231.2z"/>
	<path id="XMLID_21_" class="st1" d="M330,273c-2.4,21,23.2,43.7,44.1,31.9c1.3-11,7.6-27.3,16.7-37.4c-12.2-6-15.7-14.7-16.9-24
		C357.7,248.1,344.6,263,330,273z"/>
	<path id="XMLID_20_" class="st1" d="M321.2,283.2c-51.6,26.4,11.9,89.4,47.1,63.3c2.5-10.1,5.1-20.2,4.1-29.2
		c-4.1-4.7-12.3,2.8-21.5,0C332.6,311.9,324.7,294.3,321.2,283.2z"/>
	<path id="XMLID_19_" class="st1" d="M294.2,318.3c-34,36.2-7.9,106.5,36.5,92.4c15.9-5,30.3-29.2,36.1-51.8
		C343,370.2,290.4,350.1,294.2,318.3z"/>
	<path id="XMLID_6_" class="st1" d="M582.2,356.8c-6.4-18.5-17-32.4-2.3-57.4c-17.8-26.6-24.7-56.3-64.7-66.2
		c2.6-15.6,24.9-3.2,35.1,5.6c3.7-5.4,4.5-10,6.3-14.8c-18.3-2.4-40.3-15.5-40.8-31.8c-20.3,20.9-65,16.2-81.8-14.1
		c-18.4,31-9.5,67.6,24.3,87.5c21.3,12.5,48.9,15.7,67.2,1.3c-6-6.5-22.3-9.8-21.6-18.3c14.1,2,35.7,16.2,51.3,32.5
		c11.3,11.8,13.8,25.5,6.6,43.2"/>
	<path id="XMLID_17_" class="st1" d="M468.7,25.3c6.7-0.1,38.7,25.4,32.5,45.7C518.8,56.7,484.9,2.3,468.7,25.3z"/>
	<path id="XMLID_16_" class="st1" d="M522.8,75.6c-1.8-14.3-8.4-25.1-6.1-38c5.4,3.1,5.7,22.3,8,15.9c4.8-26.8,35.6-76.9,72.3-86.6
		C546.5-8,525.6,54.5,534.9,83.8L532,95L522.8,75.6z"/>
</g>
<path id="XMLID_14_" class="st1" d="M565.2,189c-6.5-4.7-4.6,2.3-3.8,4.8c2.2,4.6,4.6,7.2,6.8,8.4
	C576.4,200.2,573.7,195.4,565.2,189z"/>
<path id="XMLID_13_" class="st1" d="M546.3,88.9c6.6-22.5,10.4-62.2,27-54.6C577.9-2.5,533.1,63.9,546.3,88.9z"/>
<g id="XMLID_63_">
	<g id="XMLID_65_">
		<path id="XMLID_66_" class="st2" d="M962.8,343.3L962.8,343.3L962.8,343.3L962.8,343.3z"/>
	</g>
	<path id="XMLID_64_" class="st2" d="M748.9,343.4c0.5-0.5,2.9-3.9,6.2-2.5c3.8,1.6,6,4.6,4.6,7.3l1.5-2.1c2.4-3.4,6.2-2,10.1,0.8
		s6.4,5.7,4.7,8.4l0.5-0.8c2.4-3.4,6.3-1.8,10.2,0.9c3,2.2,5.2,4.3,5,6.8c-0.1,0.7,0.4,1.4,1.2,1.4c1.5,0.1,3.7,1.1,6.1,3
		c3.6,2.8,5.8,6.3,3.4,9.4l-7.4,10.4c-0.3,0.4-0.4,1,0,1.4c2.7,3.7,5.6,7.8,2.2,12.8c0,0-5.2,8.6-7.5,10.8
		c-5.9,5.7-26.1,14.7-32.1,13.9c-0.5,0-7.3,0.7-13,6.6l-5.8,10.5c-2.7,3.8-29,25.1-35.7,26.6c-0.7,0.1-0.6-1.9-0.8-2.6
		c-0.7-3.7-2.2-2.8-3-8.6c-0.2-1-7,1.2-7.8,0.8c-11.8-6.3-0.2-27.3,3.1-32.2c0-0.1,7.6-10.4,7.7-10.5l10.1-14.9
		c0.1-0.3,2.6-7.3,2.7-7.7c1.8-7.2,5.1-20.3,11.3-26.7L748.9,343.4z"/>
</g>
<path id="XMLID_62_" class="st1" d="M984,464.5c28.7-28.1,67.2-38.9,108.4-29.1c9.8,1.9,19.2,4.6,28.3,8.6l0,0
	c11.5,5,22.4,11.6,31.4,20.1c23.8,22.2,33.4,50.2,33.7,82.6c0.6,54.1-42.8,76.6-58.7,113.6c-6.9,12.9-10.7,43.4-11.7,42.7
	c-34.4-20.7-54.1-43-83.2-62.1c-29.5,9.5-121.4,20.9-138.4,16.2c-1.2-0.3,46-55.7,72.3-127.7c17.3,11,44.6,13.4,65.2,4.2
	c-1.4-31.8-12.8-44.6-63.5-14.6"/>
<path id="XMLID_61_" class="st1" d="M1014.3,507.9c5.7,7.8,4,18.8-3.9,24.5c-7.8,5.7-18.8,4-24.5-3.9l4.8-3.4
	c3.7,5.3,11.1,6.3,16.3,2.6c5.3-3.7,6.3-11.1,2.6-16.3L1014.3,507.9"/>
<g id="XMLID_8_">
	<g id="XMLID_9_">
		<path id="XMLID_7_" class="st2" d="M725.9,484.8c-17.1,70.5-13.5,81.1-40.4,121.5c53.1-11.5,124.4,44.2,124.4,44.2
			c35.8-16.2,62.5,14.8,69.5,24.1c1.1,1.4,0.9,3.7-0.4,5.3l-65.2,87.6c-1.5,1.8-45.3-23.1-47-24.5c-73.4-16-61.9-12.5-123.7-59.5
			c-19.6-22-46.9-34.9-59-44.4c-4.2-3.4-6.6-13.4-3.6-18.8c10.2-19.1,4.1-34.4,29.2-71.1c29.2-42.7,48.2-70.3,73.3-105.4
			c15.2-21.4,19.3-31.7,32.5-41.5c-2.7,5,37.3,13.7,35.5,19C740.3,446.7,727.8,461.6,725.9,484.8"/>
	</g>
</g>
<path id="XMLID_5_" class="st1" d="M1004.8,514.9c1.9,2.6,1.3,6.2-1.2,8.2c-2.6,1.9-6.2,1.3-8.2-1.2l4.8-3.4L1004.8,514.9z"/>
<line id="XMLID_10_" class="st3" x1="482.6" y1="592" x2="725.4" y2="245.6"/>
<line id="XMLID_11_" class="st3" x1="505.3" y1="613.9" x2="750.5" y2="256.4"/>
<line id="XMLID_12_" class="st3" x1="536.8" y1="641.3" x2="786.6" y2="275"/>
<line id="XMLID_18_" class="st3" x1="559.3" y1="663.2" x2="810.4" y2="288.7"/>
<line id="XMLID_30_" class="st3" x1="591.8" y1="690.1" x2="848.8" y2="310"/>
<line id="XMLID_31_" class="st3" x1="481.3" y1="545.7" x2="666" y2="692.6"/>
<line id="XMLID_32_" class="st3" x1="498.9" y1="518.4" x2="691.1" y2="655.5"/>
<line id="XMLID_33_" class="st3" x1="523.9" y1="481.2" x2="723.6" y2="613.9"/>
<line id="XMLID_34_" class="st3" x1="545.1" y1="449.7" x2="746.1" y2="574"/>
<line id="XMLID_35_" class="st3" x1="567.5" y1="417.5" x2="769.4" y2="541.9"/>
<line id="XMLID_36_" class="st3" x1="598.9" y1="370.1" x2="810.1" y2="497.2"/>
<line id="XMLID_37_" class="st3" x1="587.6" y1="388.4" x2="786.3" y2="510.5"/>
<line id="XMLID_38_" class="st3" x1="557.7" y1="432.6" x2="751.3" y2="552.2"/>
<line id="XMLID_39_" class="st3" x1="534.6" y1="465.2" x2="731.7" y2="590.2"/>
<line id="XMLID_40_" class="st3" x1="515.5" y1="495.5" x2="703.7" y2="623.5"/>
<line id="XMLID_41_" class="st3" x1="489.6" y1="533.4" x2="673.6" y2="670.2"/>
<line id="XMLID_42_" class="st3" x1="473.9" y1="556.4" x2="655.1" y2="708.4"/>
<line id="XMLID_43_" class="st3" x1="610.9" y1="351.4" x2="816.9" y2="470.5"/>
<line id="XMLID_44_" class="st3" x1="622.7" y1="333.8" x2="829.1" y2="449.6"/>
<line id="XMLID_45_" class="st3" x1="633.9" y1="317.2" x2="841.4" y2="432.2"/>
<line id="XMLID_46_" class="st3" x1="643.6" y1="302.7" x2="854" y2="419"/>
<line id="XMLID_47_" class="st3" x1="653" y1="288.5" x2="865" y2="402.9"/>
<line id="XMLID_48_" class="st3" x1="663.9" y1="272.8" x2="875.2" y2="388"/>
<line id="XMLID_49_" class="st3" x1="679.2" y1="258" x2="883.4" y2="366.1"/>
<line id="XMLID_50_" class="st3" x1="695.8" y1="248.5" x2="882.7" y2="346.9"/>
<line id="XMLID_51_" class="st3" x1="760.7" y1="264.2" x2="515.7" y2="621.1"/>
<line id="XMLID_52_" class="st3" x1="773.2" y1="268.5" x2="527.9" y2="628.1"/>
<line id="XMLID_53_" class="st3" x1="797.1" y1="280.9" x2="549" y2="655.6"/>
<line id="XMLID_54_" class="st3" x1="822.6" y1="298.1" x2="572" y2="672.4"/>
<line id="XMLID_55_" class="st3" x1="858.3" y1="321" x2="601.7" y2="704.4"/>
<line id="XMLID_56_" class="st3" x1="868.9" y1="332.7" x2="617.4" y2="708.1"/>
<line id="XMLID_57_" class="st3" x1="740.6" y1="247.1" x2="496.4" y2="600.3"/>
<line id="XMLID_58_" class="st3" x1="716.9" y1="241.3" x2="475.2" y2="582.8"/>
<line id="XMLID_59_" class="st3" x1="692.7" y1="251.1" x2="467.9" y2="578.1"/>
<line id="XMLID_60_" class="st3" x1="835.2" y1="303.6" x2="582" y2="683.5"/>
<path id="XMLID_4_" class="st4" d="M641,728.2l-178.9-155l198.2-295.7c15.9-24,51-43.3,75-27.4l125.2,65.6
	c24,15.9,30.6,48.3,14.7,72.3L641,728.2z"/>
<line id="XMLID_3_" class="st3" x1="872.8" y1="349.9" x2="621.4" y2="725.4"/>
<line id="XMLID_2_" class="st3" x1="578.3" y1="403.3" x2="782.4" y2="525.8"/>
<line id="XMLID_1_" class="st3" x1="510.8" y1="512.2" x2="699" y2="640.3"/>
</svg>
