  <svg version="1.1" id="Layer_1" xmlns="http://www.w3.org/2000/svg" xmlns:xlink="http://www.w3.org/1999/xlink" x="0px" y="0px"
          	 viewBox="-7691 7692 1000 1000" style="enable-background:new -7691 7692 1000 1000;" xml:space="preserve">
          <g>
          	<path d="M-7188,8227.8c3.4-8.2,10.4-12.9,19.9-15c-67.6-99.6-158.3-217.1-221.6-336.1c-29.6-49-53.3-100-111.3-133.2
          		c-111.7-44.5-144.3-33.5-77.9,63.5c39.4,54.7,29.5,44.4,42.3,59.8c80.3,94.4,162.9,175.9,246.5,263.9
          		C-7256.4,8166.2-7225,8202.2-7188,8227.8z"/>
          	<path d="M-7212.9,8262.7c-0.7-9.8,1-17.3,7.5-19.9c-63.5-67.8-132.8-134.8-201.7-209.2c-65.7-70.9-129.9-149.2-194.2-214.1
          		c-3.4-3.4-45.9-47.5-56.4-45.2c-32,7-29.2,106.6-25.9,155c10.5,111.7,61.2,191,127,251.2c47.7,43.7,104.3,81.4,169.3,114.5
          		c21,10.7,50.2,28.5,64.7,27.4c16.7-1.2,39.5-21.1,54.8-29.9C-7250.1,8282.4-7234.8,8271.8-7212.9,8262.7z"/>
          	<path d="M-7018.6,8133.2c17.1,9.5,39.2,27.2,67.2,17.4c3.6-5.3-9.3-9.3-12.5-22.4c-13.2-55,44.3-71.5,52.3-17.4
          		c16.7-82.4-35.8-178.9-124.5-161.9c-14,2.7-30.1,4.9-3.9,39.7c14,15.6,19.5,18.1,32,44.9
          		C-6989.8,8083.8-7017.1,8090.2-7018.6,8133.2z"/>
          	<path d="M-7063.5,8183c-62-20.5-4.4-131.4,27.4-57.3c14.2-92.3-72.4-149.4-169.3-149.4c-16.5,11.6-34.7,40.5-29.9,79.7
          		C-7226.3,8129.1-7149.1,8209.5-7063.5,8183z"/>
          	<path d="M-7077.3,8123.7c-11.6-3.8-5.1,7.1-1.8,10.3c7,5.2,12.8,7.1,17,7.1C-7051.4,8131.5-7059.3,8126.4-7077.3,8123.7z"/>
          	<path d="M-7163.1,8230.3c-12.9,4.5-23,11.9-32.4,19.9c3.5,4,12.3,2.6,14.9,7.4c-16.2,22.2-47.5,29.4-74.7,44.8
          		c-25.1,14.2-49.1,36.6-74.7,44.8c-33.5,10.8-105.2,21.3-102.7,53.6c20.5-18.7,34.2-25.5,52.9-31.2c2.9,22.2-46.3,29.8-41.2,62.6
          		c10.1-15.9,29.2-33.9,51.1-35.2c-12.8,23.3-35.9,94.4-12.4,46.3c9.5-9.8,17-31.4,37.3-28.9c16,1.4-5.2,87.8,12.8,32.1
          		c10.1-36.5-5.8-43.2,4.6-66.9c19.5-44.8,110-68.5,159.4-84.7c-2,12.1-14.3,13.9-19.9,22.4c13.9,41.4,92.3,30.1,104.6-5
          		C-7126,8301.2-7157.8,8279-7163.1,8230.3z"/>
          	<path d="M-7069.4,8319.4c-1.1,1.4-0.6,3.5,1,4.2c32.4,14.4,83.3,39.8,72.1,88.5c-3.3,14.3-15,19.6-15.8,44.1
          		c-0.1,1.7,0.7,36.2,1.8,32.7c6.5-20.3,18-54.5,31.5-51.8c17,11,9.4,10.6,15.9,31.5c5.8,18.8-16.7,42.7-10.5,39
          		c26.2-15.8,23.7-57.1,24.5-76c0.1-1.5,2.1-4,2.9-2.6c5.4,9.4,13,26.5,18,42.7c0.3,1-6.1,32.9-5.5,32c24.9-36.5,3.6-75.5-0.2-89.4
          		c-0.1-0.4-0.3-0.8-0.6-1.1c-8.7-9.9-12.8,13.2,23.6,33c1.2,0.6,16.4,18.3,16.4,16.9c-1.4-24.9-42.7-59.9-65.6-63
          		c-0.7-0.1-1.4-0.5-1.9-1.1c-18.9-26.3-37.3-53.1-58.1-77.5c-0.6-0.7-1.6-1.1-2.5-0.9C-7038.8,8323.1-7062.1,8309.9-7069.4,8319.4z"
          		/>
          	<path d="M-7202.9,8322.5c-15.5,4.4-27.4,12.5-42.3,17.4c5.1,5.7,20.7,0.9,29.9,2.5C-7211.6,8335.3-7204.4,8331.8-7202.9,8322.5z"/>
          	<path d="M-7232.8,8419.6c13.4,33.5,70.1,47,92.1,12.5c-6.9-17.7-10.6-47.2-5-69.7c-23.2,0.8-35.4-9.4-44.8-22.4
          		C-7211.2,8359.8-7218.9,8392.8-7232.8,8419.6z"/>
          	<path d="M-7237.8,8442c-56.4,81.4,90.1,124.9,122,57.3c-4.4-17.2-8.6-34.5-17.4-47.3c-10-3.8-16.2,14.1-32.4,17.4
          		C-7197.5,8476-7223.6,8455.9-7237.8,8442z"/>
          	<path d="M-7250.2,8516.7c-22,81.9,74,166.6,129.5,109.6c19.8-20.4,22.1-68.4,12.5-107.1
          		C-7134.8,8555.4-7230.2,8567.6-7250.2,8516.7z"/>
          	<path d="M-6835.5,8257.7c-48.2-25.6-82.7-64.8-150.8-47.3c-8.7-25.5,34.9-25,57.3-19.9c1.2-11.2-1.3-18.6-2.5-27.4
          		c-29.4,11.2-73.2,9.2-87.1-14.9c-13.7,47.8-84.8,76.8-134.5,44.8c-2.7,61.5,40.2,109.4,107.1,112c42.2,1.6,86.3-15.8,102.1-52.3
          		c-14.2-4.9-41.5,3.3-47.3-10c22.8-8.3,66.8-4.5,103.5,7.5c26.6,8.6,41.4,27.2,44.8,59.7c49.8,45.6,91.4,103.6,94.9,161.6
          		c18.5-50.5-1.7-95.9-37.7-129.3C-6810.3,8319.5-6837.5,8307.2-6835.5,8257.7z"/>
          	<path d="M-7224,7935c10-5.5,78.7,7,85.8,42.6C-7123.3,7941.7-7218.2,7887.2-7224,7935z"/>
          	<path d="M-7102,7967c-14.3-20.1-32.9-31-39.8-52.3c10.6,0.4,26.5,28.9,24.9,17.4c-14.5-44.2-8.4-144.4,38.9-188.6
          		c-55.8,78.5-36.7,189.4,0.9,226l4.7,19.1L-7102,7967z"/>
          </g>
          <path d="M-6946.8,8103.4c-13.6-1.9-5.1,7.1-1.8,10.3c7,5.2,12.8,7.1,17,7.1C-6920.9,8111.2-6928.8,8106.2-6946.8,8103.4z"/>
          <path d="M-7056,7968c-8.2-39.2,45.8-55.2,76.9-57C-7001.8,7851.8-7096,7941-7056,7968z"/>
   </svg>