<?xml version="1.0" encoding="utf-8"?>
<!-- Generator: Adobe Illustrator 19.0.0, SVG Export Plug-In . SVG Version: 6.00 Build 0)  -->
<svg version="1.1" id="Layer_1" xmlns="http://www.w3.org/2000/svg" xmlns:xlink="http://www.w3.org/1999/xlink" x="0px" y="0px"
	 viewBox="0 0 600 600" style="enable-background:new 0 0 600 600;" xml:space="preserve">
<style type="text/css">
	.st0{fill:#414042;}
	.st1{fill:#222222;}
	.st2{fill:none;stroke:#222222;stroke-width:5;stroke-miterlimit:10;}
	.st3{fill:none;stroke:#222222;stroke-width:20;stroke-miterlimit:10;}
</style>
<g id="XMLID_62_">
	<g id="XMLID_64_">
		<path id="XMLID_66_" class="st0" d="M348.7,179.6L348.7,179.6L348.7,179.6L348.7,179.6z"/>
	</g>
	<path id="XMLID_63_" class="st0" d="M182.1,236.4c0.3-0.5,1.2-3.8,4.2-3.6c3.4,0.2,5.9,2,5.5,4.5l0.6-2c1-3.3,4.3-3.2,8.1-2.1
		c3.8,1.1,6.5,2.7,5.9,5.3l0.2-0.8c1-3.3,4.4-3.1,8.2-2c2.9,0.9,5.2,2,5.7,4c0.1,0.6,0.7,1,1.3,0.8c1.2-0.3,3.2-0.1,5.5,0.7
		c3.5,1.2,6.2,3.4,5.1,6.4l-3,10.1c-0.1,0.4,0,0.9,0.4,1.1c3.1,2.2,6.4,4.6,5.1,9.4c0,0-1.8,8.1-3,10.4c-3.1,6-16.4,18.4-21.3,19.3
		c-0.4,0.1-5.5,2.5-8.4,8.6l-1.7,9.7c-1.1,3.7-15.9,27.2-20.7,30.2c-0.5,0.3-1-1.3-1.3-1.8c-1.5-2.7-2.5-1.6-4.6-5.9
		c-0.4-0.7-5.1,2.8-5.9,2.7c-10.9-1.8-7.4-21.2-6.1-25.9c0-0.1,3.2-10.1,3.2-10.2L169,291c0-0.3,0.1-6.4,0.1-6.7
		c-0.5-6.1-1.4-17.2,1.7-23.8L182.1,236.4z"/>
</g>
<path id="XMLID_2_" class="st1" d="M397.3,268.3c14.9-29.5,42-48.1,76.7-51.4c8.1-1.1,16.2-1.5,24.3-0.8l0,0
	c10.3,0.8,20.5,3.1,29.8,7.3c24.4,11,39.3,30.2,48.2,55.4c14.8,42-13,71-15.6,104c-1.9,11.9,3.2,36.6,2.2,36.4
	c-32.3-7-53.5-19.1-81.3-26.3c-20.5,15.2-89,48.5-103.5,49.3c-1,0.1,21-55.6,22.4-118.6c16.4,4,38.3-1.4,51.9-14
	c-9.5-24.4-21.8-31.3-53.3,5.5"/>
<path id="XMLID_5_" class="st1" d="M432.4,294.1c6.5,4.6,8.1,13.6,3.5,20.1s-13.6,8.1-20.1,3.5l2.8-3.9c4.3,3.1,10.3,2,13.4-2.3
	s2-10.3-2.3-13.4L432.4,294.1"/>
<g id="XMLID_8_">
	<g id="XMLID_9_">
		<path id="XMLID_7_" class="st0" d="M201.7,352.6c5.4,59.4,11,66.7,0.8,105.3c38.3-23,108.6,1.4,108.6,1.4
			c23.6-22.1,52.6-5.1,60.5,0.3c1.2,0.8,1.7,2.6,1.1,4.2l-27.5,85.5c-0.7,1.8-41.4-6-43.1-6.6c-61.4,7-51.5,6.7-112.1-13.5
			c-21.1-11.9-45.8-14.7-57.7-18.9c-4.2-1.5-8.7-8.7-7.8-13.7c2.9-17.6-5.9-27.9,3.9-63.1c11.4-41,18.9-67.5,29.1-101.5
			c6.2-20.7,6.6-29.8,14.3-40.9c-0.8,4.6,32.7,0.8,32.7,5.4C202.8,319.1,197,334,201.7,352.6"/>
	</g>
</g>
<path id="XMLID_4_" class="st1" d="M426.9,302c2.2,1.5,2.7,4.5,1.2,6.7s-4.5,2.7-6.7,1.2l2.8-3.9L426.9,302z"/>
<line id="XMLID_10_" class="st2" x1="40.7" y1="500.6" x2="137.9" y2="166.5"/>
<line id="XMLID_11_" class="st2" x1="64.2" y1="511.6" x2="160.3" y2="168.2"/>
<line id="XMLID_12_" class="st2" x1="96" y1="524.6" x2="193.3" y2="173.1"/>
<line id="XMLID_18_" class="st2" x1="119.3" y1="535.7" x2="215.5" y2="177.5"/>
<line id="XMLID_30_" class="st2" x1="151.8" y1="548" x2="251.1" y2="183.9"/>
<line id="XMLID_31_" class="st2" x1="27.4" y1="464.9" x2="210.2" y2="530.3"/>
<line id="XMLID_32_" class="st2" x1="33.9" y1="439" x2="219.9" y2="494.7"/>
<line id="XMLID_33_" class="st2" x1="43.5" y1="403.4" x2="234.2" y2="453.7"/>
<line id="XMLID_34_" class="st2" x1="51.6" y1="373.2" x2="241.1" y2="416.7"/>
<line id="XMLID_35_" class="st2" x1="60.5" y1="342.2" x2="250.7" y2="385.5"/>
<line id="XMLID_36_" class="st2" x1="72.4" y1="297" x2="270.6" y2="339.9"/>
<line id="XMLID_37_" class="st2" x1="68.5" y1="314.2" x2="255.6" y2="356.6"/>
<line id="XMLID_38_" class="st2" x1="56.9" y1="356.6" x2="239.4" y2="398.3"/>
<line id="XMLID_39_" class="st2" x1="47.6" y1="388.1" x2="234.2" y2="433.1"/>
<line id="XMLID_40_" class="st2" x1="40.7" y1="416.7" x2="221.2" y2="466.5"/>
<line id="XMLID_41_" class="st2" x1="30.6" y1="453.1" x2="210.2" y2="510.8"/>
<line id="XMLID_42_" class="st2" x1="24.5" y1="475.2" x2="205.9" y2="545.5"/>
<line id="XMLID_43_" class="st2" x1="76.8" y1="279.2" x2="268.8" y2="317.3"/>
<line id="XMLID_44_" class="st2" x1="81.3" y1="262.4" x2="272.7" y2="297.8"/>
<line id="XMLID_45_" class="st2" x1="85.6" y1="246.5" x2="277.7" y2="281"/>
<line id="XMLID_46_" class="st2" x1="89.3" y1="232.6" x2="284" y2="267.4"/>
<line id="XMLID_47_" class="st2" x1="92.9" y1="219.1" x2="288.3" y2="251.9"/>
<line id="XMLID_48_" class="st2" x1="97.2" y1="204" x2="292.3" y2="237.6"/>
<line id="XMLID_49_" class="st2" x1="105.2" y1="188.4" x2="292.9" y2="218.4"/>
<line id="XMLID_50_" class="st2" x1="115.6" y1="176.6" x2="287.2" y2="203.6"/>
<line id="XMLID_51_" class="st2" x1="170.3" y1="171.6" x2="74.2" y2="514.5"/>
<line id="XMLID_52_" class="st2" x1="181.2" y1="171.6" x2="85.6" y2="516.7"/>
<line id="XMLID_53_" class="st2" x1="203.1" y1="174.9" x2="109.3" y2="532.5"/>
<line id="XMLID_54_" class="st2" x1="227.5" y1="181.6" x2="131.7" y2="539.5"/>
<line id="XMLID_55_" class="st2" x1="261.4" y1="189.9" x2="163.3" y2="556.5"/>
<line id="XMLID_56_" class="st2" x1="272.7" y1="196.2" x2="176.5" y2="555.2"/>
<line id="XMLID_57_" class="st2" x1="150.1" y1="163.6" x2="53.7" y2="503.4"/>
<line id="XMLID_58_" class="st2" x1="130.1" y1="165.4" x2="32.5" y2="495.4"/>
<line id="XMLID_59_" class="st2" x1="113.9" y1="179.4" x2="25.6" y2="493.7"/>
<line id="XMLID_60_" class="st2" x1="238.8" y1="182.5" x2="142.4" y2="545.5"/>
<path id="XMLID_1_" class="st3" d="M200.2,564.6L19.8,491.4l75.9-282.8c6-22.9,28.2-47.2,51.1-41.2l114.9,17.9
	c22.9,6,36.6,29.5,30.6,52.4L200.2,564.6z"/>
<line id="XMLID_3_" class="st2" x1="280.3" y1="208.6" x2="184.2" y2="567.6"/>
<line id="XMLID_6_" class="st2" x1="65.2" y1="328.3" x2="256.6" y2="369.5"/>
<line id="XMLID_13_" class="st2" x1="41.5" y1="431" x2="222" y2="480.8"/>
</svg>
